<?xml version="1.0" encoding="UTF-8" standalone="no"?>
<svg
   xmlns:dc="http://purl.org/dc/elements/1.1/"
   xmlns:cc="http://creativecommons.org/ns#"
   xmlns:rdf="http://www.w3.org/1999/02/22-rdf-syntax-ns#"
   xmlns:svg="http://www.w3.org/2000/svg"
   xmlns="http://www.w3.org/2000/svg"
   xmlns:sodipodi="http://sodipodi.sourceforge.net/DTD/sodipodi-0.dtd"
   xmlns:inkscape="http://www.inkscape.org/namespaces/inkscape"
   version="1.1"
   x="0px"
   y="0px"
   viewBox="0 0 149.36983 150.51006"
   enable-background="new 0 0 100 95.139"
   xml:space="preserve"
   id="svg2"
   inkscape:version="0.91 r13725"
   sodipodi:docname="hackyhour.svg"
   width="149.36983"
   height="150.51006"><metadata
     id="metadata28"><rdf:RDF><cc:Work
         rdf:about=""><dc:format>image/svg+xml</dc:format><dc:type
           rdf:resource="http://purl.org/dc/dcmitype/StillImage" /><dc:title /></cc:Work></rdf:RDF></metadata><defs
     id="defs26" /><sodipodi:namedview
     pagecolor="#ffffff"
     bordercolor="#666666"
     borderopacity="1"
     objecttolerance="10"
     gridtolerance="10"
     guidetolerance="10"
     inkscape:pageopacity="0"
     inkscape:pageshadow="2"
     inkscape:window-width="1276"
     inkscape:window-height="985"
     id="namedview24"
     showgrid="false"
     fit-margin-top="0"
     fit-margin-left="0"
     fit-margin-right="0"
     fit-margin-bottom="0"
     inkscape:zoom="3.5080714"
     inkscape:cx="59.860614"
     inkscape:cy="46.935746"
     inkscape:window-x="404"
     inkscape:window-y="24"
     inkscape:window-maximized="0"
     inkscape:current-layer="g4834"><inkscape:grid
       type="xygrid"
       id="grid4810"
       originx="0"
       originy="0" /></sodipodi:namedview><g
     id="g4187"><g
       transform="translate(-0.40009308,0.87418365)"
       id="g4172"><g
         id="g4850"><path
           transform="translate(0.40009308,-0.87418365)"
           style="opacity:1;fill:#bdd4f6;fill-opacity:1"
           id="path4186"
           sodipodi:type="arc"
           sodipodi:cx="74.684914"
           sodipodi:cy="75.255028"
           sodipodi:rx="74.684914"
           sodipodi:ry="75.255028"
           sodipodi:start="0"
           sodipodi:end="6.21666"
           d="M 149.36983,75.255028 A 74.684914,75.255028 0 0 1 75.926966,150.49965 74.684914,75.255028 0 0 1 0.04131204,77.757748 74.684914,75.255028 0 0 1 70.960132,0.09365085 74.684914,75.255028 0 0 1 149.20462,70.252356"
           sodipodi:open="true" /><g
           id="g4834"><g
             id="g4822"
             transform="translate(0,15.339054)"><polygon
               style="fill:#003978;fill-opacity:1"
               transform="translate(25.085007,11.47229)"
               id="polygon4"
               points="31.944,68.75 31.944,77.083 37.5,77.083 62.5,77.083 68.056,77.083 68.056,68.75 " /><path
               style="fill:#003978;fill-opacity:1"
               inkscape:connector-curvature="0"
               id="path6"
               d="m 70.918007,67.72229 c 0,-0.768 -0.621,-1.389 -1.389,-1.389 -0.613,0 -1.117,0.402 -1.301,0.954 l -0.017,-0.005 -2.461,7.384 -7.332,0 c -0.768,0 -1.389,0.621 -1.389,1.389 0,0.768 0.621,1.389 1.389,1.389 l 9.334,0 3.094,-9.282 -0.017,-0.006 c 0.049,-0.138 0.089,-0.28 0.089,-0.434 z" /><g
               style="fill:#003978;fill-opacity:1"
               transform="translate(25.085007,11.47229)"
               id="g8"><path
                 style="fill:#003978;fill-opacity:1"
                 inkscape:connector-curvature="0"
                 id="path10"
                 d="m 36.111,54.861 -11.965,0 -3.503,-9.584 -0.019,0.007 c -0.531,-1.689 -2.091,-2.924 -3.957,-2.924 -0.67,0 -1.295,0.174 -1.856,0.455 L 14.804,42.801 C 5.257,47.574 0,58.27 0,72.917 c 0,2.301 1.865,4.166 4.167,4.166 l 12.5,0 0,13.889 c 0,2.302 1.865,4.167 4.167,4.167 2.302,0 4.166,-1.866 4.166,-4.167 L 25,72.917 C 25,70.615 23.135,68.75 20.833,68.75 l -12.323,0 C 9.016,62.761 10.784,56.3 15.473,52.294 l 4.265,6.587 0.01,-0.005 c 0.457,0.91 1.388,1.541 2.475,1.541 l 13.889,0 c 1.534,0 2.777,-1.244 2.777,-2.778 0,-1.534 -1.244,-2.778 -2.778,-2.778 z" /><circle
                 style="fill:#003978;fill-opacity:1"
                 id="circle12"
                 r="6.25"
                 cy="39.583"
                 cx="27.778" /></g><path
               style="fill:#003978;fill-opacity:1"
               inkscape:connector-curvature="0"
               id="path14"
               d="m 91.752007,74.66629 -7.333,0 -2.461,-7.384 -0.016,0.005 c -0.185,-0.552 -0.688,-0.954 -1.302,-0.954 -0.768,0 -1.389,0.621 -1.389,1.389 0,0.154 0.04,0.296 0.088,0.434 l -0.017,0.006 3.094,9.282 9.335,0 c 0.768,0 1.389,-0.621 1.389,-1.389 0,-0.768 -0.62,-1.389 -1.388,-1.389 z" /><circle
               style="fill:#003978;fill-opacity:1"
               id="circle16"
               r="6.25"
               cy="51.05529"
               cx="97.308006" /><path
               style="fill:#003978;fill-opacity:1"
               inkscape:connector-curvature="0"
               id="path18"
               d="m 110.28201,54.27329 -0.007,0.014 c -0.562,-0.281 -1.188,-0.455 -1.857,-0.455 -1.864,0 -3.426,1.234 -3.956,2.924 l -0.02,-0.007 -3.503,9.584 -11.965003,0 c -1.534,0 -2.777,1.243 -2.777,2.777 0,1.534 1.243,2.778 2.777,2.778 l 13.889003,0 c 1.087,0 2.019,-0.631 2.476,-1.541 l 0.01,0.005 4.266,-6.587 c 4.688,4.006 6.456,10.467 6.962,16.456 l -12.325,0 c -2.302,0 -4.167,1.865 -4.167,4.167 l 0,18.055 c 0,2.302 1.865,4.167 4.167,4.167 2.302,0 4.166,-1.865 4.166,-4.167 l 0,-13.888 12.5,0 c 2.302,0 4.167,-1.865 4.167,-4.166 0,-14.647 -5.257,-25.343 -14.803,-30.116 z" /><path
               style="fill:#003978;fill-opacity:1"
               inkscape:connector-curvature="0"
               id="path20"
               d="m 75.085007,40.63929 c -8.042,0 -14.583,-6.542 -14.583,-14.583 0,-8.041 6.541,-14.584 14.583,-14.584 8.042,0 14.583,6.542 14.583,14.583 0,8.041 -6.541,14.584 -14.583,14.584 z m 0,-26.389 c -6.509,0 -11.806,5.295 -11.806,11.805 0,6.51 5.297,11.806 11.806,11.806 6.509,0 11.806,-5.296 11.806,-11.806 0,-6.51 -5.297,-11.805 -11.806,-11.805 z" /><path
               style="fill:#003978;fill-opacity:1"
               inkscape:connector-curvature="0"
               id="path22"
               d="m 82.029007,20.50029 c 0,-0.768 -0.621,-1.389 -1.389,-1.389 -0.386,0 -0.732,0.157 -0.983,0.409 l -3.184,3.183 0,-4.981 c 0,-0.768 -0.621,-1.389 -1.389,-1.389 -0.768,0 -1.389,0.622 -1.389,1.389 l 0,8.333 c 0,0.768 0.621,1.389 1.389,1.389 0.385,0 0.732,-0.157 0.983,-0.409 l 5.553,-5.551 c 0.253,-0.252 0.409,-0.6 0.409,-0.984 z" /></g></g></g></g></g></svg>